ffmpeg started on 2016-12-06 at 05:29:27
Report written to "Output/x264/results/ffmpeg/crowd_run_2160p50fast4500k.log"
Command line:
Tools/ffmpeg/ffmpeg -benchmark -y -i Input/y4m/crowd_run_2160p50.y4m -c:v libx264 -preset fast -b:v 4500k -an Output/x264/encoded/crowd_run_2160p50fast4500k.mkv
ffmpeg version N-82227-gdb23fde Copyright (c) 2000-2016 the FFmpeg developers
  built with gcc 5.4.0 (Ubuntu 5.4.0-6ubuntu1~16.04.2) 20160609
  configuration: --prefix=/home/jaroslav/ffmpeg_build --pkg-config-flags=--static --extra-cflags=-I/home/jaroslav/ffmpeg_build/include --extra-ldflags=-L/home/jaroslav/ffmpeg_build/lib --bindir=/home/jaroslav/bin --enable-gpl --enable-libass --enable-libfdk-aac --enable-libfreetype --enable-libmp3lame --enable-libopus --enable-libtheora --enable-libvorbis --enable-libvpx --enable-libx264 --enable-libx265 --enable-nvenc --enable-libmfx --enable-libxvid --enable-libgsm --enable-libopencore-amrnb --enable-version3 --enable-nonfree
  libavutil      55. 35.100 / 55. 35.100
  libavcodec     57. 66.101 / 57. 66.101
  libavformat    57. 57.100 / 57. 57.100
  libavdevice    57.  2.100 / 57.  2.100
  libavfilter     6. 66.100 /  6. 66.100
  libswscale      4.  3.100 /  4.  3.100
  libswresample   2.  4.100 /  2.  4.100
  libpostproc    54.  2.100 / 54.  2.100
Input #0, yuv4mpegpipe, from 'Input/y4m/crowd_run_2160p50.y4m':
  Duration: 00:00:10.00, start: 0.000000, bitrate: 4976642 kb/s
    Stream #0:0: Video: rawvideo (I420 / 0x30323449), yuv420p(progressive), 3840x2160, SAR 1:1 DAR 16:9, 50 fps, 50 tbr, 50 tbn, 50 tbc
[libx264 @ 0x292a1c0] using SAR=1/1
[libx264 @ 0x292a1c0] using cpu capabilities: MMX2 SSE2Fast SSSE3 SSE4.2 AVX FMA3 AVX2 LZCNT BMI2
[libx264 @ 0x292a1c0] profile High, level 5.2
[libx264 @ 0x292a1c0] 264 - core 148 - H.264/MPEG-4 AVC codec - Copyleft 2003-2016 - http://www.videolan.org/x264.html - options: cabac=1 ref=2 deblock=1:0:0 analyse=0x3:0x113 me=hex subme=6 psy=1 psy_rd=1.00:0.00 mixed_ref=1 me_range=16 chroma_me=1 trellis=1 8x8dct=1 cqm=0 deadzone=21,11 fast_pskip=1 chroma_qp_offset=-2 threads=6 lookahead_threads=1 sliced_threads=0 nr=0 decimate=1 interlaced=0 bluray_compat=0 constrained_intra=0 bframes=3 b_pyramid=2 b_adapt=1 b_bias=0 direct=1 weightb=1 open_gop=0 weightp=1 keyint=250 keyint_min=25 scenecut=40 intra_refresh=0 rc_lookahead=30 rc=abr mbtree=1 bitrate=4500 ratetol=1.0 qcomp=0.60 qpmin=0 qpmax=69 qpstep=4 ip_ratio=1.40 aq=1:1.00
Output #0, matroska, to 'Output/x264/encoded/crowd_run_2160p50fast4500k.mkv':
  Metadata:
    encoder         : Lavf57.57.100
    Stream #0:0: Video: h264 (libx264) (H264 / 0x34363248), yuv420p, 3840x2160 [SAR 1:1 DAR 16:9], q=-1--1, 4500 kb/s, 50 fps, 1k tbn, 50 tbc
    Metadata:
      encoder         : Lavc57.66.101 libx264
    Side data:
      cpb: bitrate max/min/avg: 0/0/4500000 buffer size: 0 vbv_delay: -1
Stream mapping:
  Stream #0:0 -> #0:0 (rawvideo (native) -> h264 (libx264))
Press [q] to stop, [?] for help
frame=   19 fps=0.0 q=0.0 size=       0kB time=00:00:00.00 bitrate=N/A speed=   0x    frame=   36 fps= 35 q=0.0 size=       0kB time=00:00:00.00 bitrate=N/A speed=   0x    frame=   37 fps= 14 q=0.0 size=       0kB time=00:00:00.00 bitrate=N/A speed=   0x    frame=   44 fps= 14 q=42.0 size=       1kB time=00:00:00.02 bitrate= 279.6kbits/s speed=0.00676x    frame=   48 fps= 13 q=48.0 size=       1kB time=00:00:00.10 bitrate=  58.1kbits/s speed=0.0279x    frame=   57 fps= 14 q=57.0 size=       1kB time=00:00:00.28 bitrate=  20.9kbits/s speed=0.0677x    frame=   66 fps= 14 q=58.0 size=       1kB time=00:00:00.46 bitrate=  12.7kbits/s speed=0.0971x    frame=   75 fps= 14 q=58.0 size=       1kB time=00:00:00.64 bitrate=   9.2kbits/s speed=0.122x    frame=   84 fps= 14 q=59.0 size=       1kB time=00:00:00.82 bitrate=   7.2kbits/s speed=0.14x    frame=   93 fps= 14 q=59.0 size=       1kB time=00:00:01.00 bitrate=   5.9kbits/s speed=0.156x    frame=  101 fps= 15 q=59.0 size=       1kB time=00:00:01.16 bitrate=   5.1kbits/s speed=0.168x    frame=  110 fps= 15 q=58.0 size=       1kB time=00:00:01.34 bitrate=   4.4kbits/s speed=0.179x    frame=  119 fps= 15 q=58.0 size=       1kB time=00:00:01.52 bitrate=   3.9kbits/s speed=0.19x    frame=  128 fps= 15 q=58.0 size=       1kB time=00:00:01.70 bitrate=   3.5kbits/s speed=0.199x    frame=  136 fps= 15 q=58.0 size=       1kB time=00:00:01.86 bitrate=   3.2kbits/s speed=0.206x    frame=  145 fps= 15 q=58.0 size=       1kB time=00:00:02.04 bitrate=   2.9kbits/s speed=0.214x    frame=  154 fps= 15 q=58.0 size=       1kB time=00:00:02.22 bitrate=   2.6kbits/s speed=0.219x    frame=  163 fps= 15 q=58.0 size=       1kB time=00:00:02.40 bitrate=   2.4kbits/s speed=0.225x    frame=  172 fps= 15 q=58.0 size=       1kB time=00:00:02.58 bitrate=   2.3kbits/s speed=0.23x    frame=  181 fps= 15 q=57.0 size=       1kB time=00:00:02.76 bitrate=   2.1kbits/s speed=0.236x    frame=  189 fps= 15 q=57.0 size=       1kB time=00:00:02.92 bitrate=   2.0kbits/s speed=0.238x    frame=  198 fps= 15 q=57.0 size=       1kB time=00:00:03.10 bitrate=   1.9kbits/s speed=0.241x    frame=  207 fps= 15 q=57.0 size=       1kB time=00:00:03.28 bitrate=   1.8kbits/s speed=0.246x    frame=  216 fps= 16 q=57.0 size=       1kB time=00:00:03.46 bitrate=   1.7kbits/s speed=0.249x    frame=  225 fps= 16 q=57.0 size=       1kB time=00:00:03.64 bitrate=   1.6kbits/s speed=0.252x    frame=  234 fps= 16 q=57.0 size=       1kB time=00:00:03.82 bitrate=   1.5kbits/s speed=0.254x    frame=  243 fps= 16 q=57.0 size=       1kB time=00:00:04.00 bitrate=   1.5kbits/s speed=0.257x    frame=  252 fps= 16 q=57.0 size=       1kB time=00:00:04.18 bitrate=   1.4kbits/s speed=0.259x    frame=  260 fps= 16 q=57.0 size=       1kB time=00:00:04.34 bitrate=   1.4kbits/s speed=0.261x    frame=  268 fps= 16 q=57.0 size=       1kB time=00:00:04.50 bitrate=   1.3kbits/s speed=0.263x    frame=  276 fps= 16 q=57.0 size=       1kB time=00:00:04.66 bitrate=   1.3kbits/s speed=0.264x    frame=  285 fps= 16 q=57.0 size=       1kB time=00:00:04.84 bitrate=   1.2kbits/s speed=0.266x    frame=  287 fps= 15 q=57.0 size=       1kB time=00:00:04.88 bitrate=   1.2kbits/s speed=0.256x    frame=  296 fps= 15 q=57.0 size=    2927kB time=00:00:05.06 bitrate=4737.8kbits/s speed=0.258x    frame=  305 fps= 15 q=57.0 size=    2927kB time=00:00:05.24 bitrate=4575.0kbits/s speed=0.26x    frame=  313 fps= 15 q=57.0 size=    2927kB time=00:00:05.40 bitrate=4439.5kbits/s speed=0.261x    frame=  322 fps= 15 q=57.0 size=    2927kB time=00:00:05.58 bitrate=4296.3kbits/s speed=0.263x    frame=  329 fps= 15 q=57.0 size=    2927kB time=00:00:05.72 bitrate=4191.2kbits/s speed=0.261x    frame=  339 fps= 15 q=57.0 size=    2927kB time=00:00:05.92 bitrate=4049.6kbits/s speed=0.263x    frame=  347 fps= 15 q=57.0 size=    2927kB time=00:00:06.08 bitrate=3943.1kbits/s speed=0.264x    frame=  356 fps= 15 q=57.0 size=    2927kB time=00:00:06.26 bitrate=3829.7kbits/s speed=0.266x    frame=  364 fps= 15 q=58.0 size=    2927kB time=00:00:06.42 bitrate=3734.3kbits/s speed=0.266x    frame=  371 fps= 15 q=58.0 size=    2927kB time=00:00:06.56 bitrate=3654.6kbits/s speed=0.267x    frame=  380 fps= 15 q=58.0 size=    2927kB time=00:00:06.74 bitrate=3557.0kbits/s speed=0.268x    frame=  388 fps= 15 q=58.0 size=    2927kB time=00:00:06.90 bitrate=3474.5kbits/s speed=0.269x    frame=  397 fps= 15 q=58.0 size=    2927kB time=00:00:07.08 bitrate=3386.2kbits/s speed=0.271x    frame=  405 fps= 15 q=58.0 size=    2927kB time=00:00:07.24 bitrate=3311.4kbits/s speed=0.271x    frame=  413 fps= 15 q=58.0 size=    2927kB time=00:00:07.40 bitrate=3239.8kbits/s speed=0.272x    frame=  421 fps= 15 q=58.0 size=    2927kB time=00:00:07.56 bitrate=3171.2kbits/s speed=0.273x    frame=  429 fps= 15 q=58.0 size=    2927kB time=00:00:07.72 bitrate=3105.5kbits/s speed=0.273x    frame=  437 fps= 15 q=58.0 size=    2927kB time=00:00:07.88 bitrate=3042.5kbits/s speed=0.274x    frame=  444 fps= 15 q=58.0 size=    2927kB time=00:00:08.02 bitrate=2989.4kbits/s speed=0.274x    frame=  452 fps= 15 q=58.0 size=    2927kB time=00:00:08.18 bitrate=2930.9kbits/s speed=0.275x    frame=  460 fps= 15 q=58.0 size=    2927kB time=00:00:08.34 bitrate=2874.7kbits/s speed=0.275x    frame=  467 fps= 15 q=58.0 size=    2927kB time=00:00:08.48 bitrate=2827.2kbits/s speed=0.275x    frame=  476 fps= 15 q=58.0 size=    2927kB time=00:00:08.66 bitrate=2768.5kbits/s speed=0.276x    frame=  484 fps= 15 q=58.0 size=    2927kB time=00:00:08.82 bitrate=2718.3kbits/s speed=0.276x    frame=  491 fps= 15 q=58.0 size=    2927kB time=00:00:08.96 bitrate=2675.8kbits/s speed=0.276x    frame=  499 fps= 15 q=58.0 size=    2927kB time=00:00:09.12 bitrate=2628.9kbits/s speed=0.277x    frame=  500 fps= 14 q=-1.0 Lsize=    5866kB time=00:00:09.94 bitrate=4834.2kbits/s speed=0.285x    
video:5862kB audio:0kB subtitle:0kB other streams:0kB global headers:0kB muxing overhead: 0.074168%
bench: utime=119.820s
bench: maxrss=1597140kB
[libx264 @ 0x292a1c0] frame I:2     Avg QP:43.82  size:138226
[libx264 @ 0x292a1c0] frame P:126   Avg QP:50.82  size: 18624
[libx264 @ 0x292a1c0] frame B:372   Avg QP:50.84  size:  9083
[libx264 @ 0x292a1c0] consecutive B-frames:  0.8%  0.0%  0.0% 99.2%
[libx264 @ 0x292a1c0] mb I  I16..4: 31.9% 62.2%  5.9%
[libx264 @ 0x292a1c0] mb P  I16..4:  6.3%  2.4%  0.0%  P16..4: 17.5%  1.8%  2.8%  0.0%  0.0%    skip:69.3%
[libx264 @ 0x292a1c0] mb B  I16..4:  0.2%  0.1%  0.0%  B16..8: 12.0%  0.3%  0.0%  direct: 5.2%  skip:82.3%  L0:46.0% L1:53.8% BI: 0.2%
[libx264 @ 0x292a1c0] final ratefactor: 49.66
[libx264 @ 0x292a1c0] 8x8 transform intra:33.5% inter:98.5%
[libx264 @ 0x292a1c0] coded y,uvDC,uvAC intra: 7.9% 41.6% 2.9% inter: 1.3% 4.8% 0.0%
[libx264 @ 0x292a1c0] i16 v,h,dc,p: 61% 23%  9%  7%
[libx264 @ 0x292a1c0] i8 v,h,dc,ddl,ddr,vr,hd,vl,hu: 14%  8% 56%  4%  4%  4%  4%  4%  3%
[libx264 @ 0x292a1c0] i4 v,h,dc,ddl,ddr,vr,hd,vl,hu: 24% 19% 13%  9%  8%  8%  7%  6%  5%
[libx264 @ 0x292a1c0] i8c dc,h,v,p: 95%  2%  3%  0%
[libx264 @ 0x292a1c0] Weighted P-Frames: Y:1.6% UV:0.0%
[libx264 @ 0x292a1c0] ref P L0: 58.4% 41.6%
[libx264 @ 0x292a1c0] ref B L0: 80.4% 19.6%
[libx264 @ 0x292a1c0] ref B L1: 94.0%  6.0%
[libx264 @ 0x292a1c0] kb/s:4801.54
